<svg width="210" height="60" viewBox="0 0 210 60" fill="none" xmlns="http://www.w3.org/2000/svg">
<g clip-path="url(#clip0_34_913)">
<path d="M5.89106 50.2443H4.51353L1.97829 53.3235H1.26021V50.2443H0.19043V57.3353H1.26021V54.3449H2.24207L4.54284 57.3353H5.93502L3.06273 53.664L5.89106 50.2443Z" fill="#A5A5A5"/>
<path d="M10.4779 55.8994H10.4046L8.44092 50.2443H7.26855L9.90638 57.3798L9.70121 57.9275C9.60673 58.3277 9.35905 58.6737 9.01245 58.8898C8.69344 58.9949 8.3496 58.9949 8.03059 58.8898L7.75216 59.852L8.0599 59.9408C8.22068 59.9575 8.38273 59.9575 8.5435 59.9408C8.84572 59.945 9.1454 59.8845 9.42278 59.7632C9.69101 59.6433 9.92711 59.4606 10.1115 59.2303C10.3288 58.9611 10.4974 58.6554 10.6098 58.3272L13.5407 50.2147H12.3683L10.4779 55.8994Z" fill="#A5A5A5"/>
<path d="M20.1646 50.5995C19.7036 50.2937 19.1627 50.134 18.6112 50.1406C18.2357 50.1253 17.8625 50.2068 17.5268 50.3775C17.2834 50.4977 17.0722 50.6755 16.9113 50.8956L16.5742 51.3694H16.4423V50.2443H15.4019V60H16.4863V56.2398H16.5742C16.6621 56.373 16.7647 56.5359 16.9113 56.7284C17.0808 56.9499 17.2958 57.1317 17.5414 57.2613C17.8796 57.4233 18.2519 57.4996 18.6259 57.4834C19.1757 57.4935 19.7162 57.339 20.1792 57.0392C20.6344 56.7146 20.998 56.2758 21.2344 55.7661C21.4916 55.1481 21.6164 54.4822 21.6007 53.812C21.6198 53.1463 21.4948 52.4845 21.2344 51.8727C21.0013 51.3565 20.631 50.9157 20.1646 50.5995ZM20.2965 55.1591C20.1672 55.5463 19.9276 55.8862 19.6077 56.1362C19.2872 56.3913 18.8871 56.5225 18.4793 56.5063C18.0858 56.5181 17.6995 56.3984 17.3802 56.1658C17.0699 55.916 16.8361 55.5823 16.7061 55.2036C16.5304 54.731 16.4506 54.2275 16.4716 53.7232C16.4637 53.2499 16.5381 52.7789 16.6915 52.3316C16.8269 51.964 17.0602 51.6413 17.3656 51.399C17.6926 51.1724 18.0831 51.0582 18.4793 51.0733C18.889 51.0592 19.2914 51.1843 19.6224 51.4286C19.9367 51.6683 20.1717 51.9987 20.2965 52.376C20.4596 52.8057 20.5392 53.2631 20.531 53.7232C20.5465 54.2115 20.472 54.6984 20.3111 55.1591H20.2965Z" fill="#A5A5A5"/>
<path d="M25.455 51.4582C25.7796 51.2383 26.1633 51.1246 26.5541 51.1325C26.9328 51.1065 27.3085 51.2151 27.6163 51.4395C27.9241 51.6639 28.1445 51.9899 28.2393 52.3612H29.3238C29.2725 51.9409 29.1105 51.5421 28.8548 51.2065C28.593 50.8708 28.2567 50.602 27.873 50.4219C27.4532 50.2337 26.9986 50.1378 26.5394 50.1406C25.9529 50.1276 25.3761 50.2926 24.8834 50.6143C24.3987 50.9346 24.0128 51.386 23.7697 51.9171C23.4955 52.5149 23.3601 53.1681 23.374 53.8268C23.3655 54.4787 23.4954 55.1248 23.755 55.7217C23.9977 56.2446 24.3779 56.6901 24.8541 57.0096C25.3153 57.2867 25.8357 57.4474 26.3714 57.4783C26.907 57.5093 27.4422 57.4094 27.9316 57.1873C28.302 57.0056 28.6237 56.7365 28.8695 56.4027C29.1158 56.0687 29.2723 55.676 29.3238 55.2628H28.2393C28.1853 55.5103 28.0692 55.7397 27.9023 55.9289C27.7455 56.1129 27.5503 56.2595 27.3308 56.3582C27.0851 56.4623 26.8204 56.5128 26.5541 56.5063C26.1569 56.5119 25.7678 56.3929 25.4403 56.1658C25.1134 55.9252 24.8596 55.597 24.7076 55.2183C24.5288 54.7463 24.4441 54.2432 24.4585 53.7379C24.4479 53.2605 24.5378 52.7862 24.7222 52.3464C24.8808 51.9878 25.1344 51.6804 25.455 51.4582Z" fill="#A5A5A5"/>
<path d="M34.2625 52.8053H32.4013V50.2443H31.3169V57.3353H34.2478C34.7301 57.349 35.2083 57.2422 35.64 57.0244C35.9987 56.8467 36.2952 56.5626 36.49 56.2102C36.6912 55.8546 36.7926 55.4502 36.783 55.0407C36.7892 54.7439 36.7352 54.4489 36.6243 54.174C36.5134 53.899 36.348 53.6499 36.1382 53.4419C35.6169 52.9946 34.9454 52.7667 34.2625 52.8053ZM35.3176 55.9733C35.02 56.2168 34.6451 56.343 34.2625 56.3286H32.4013V53.8268H34.2625C34.6451 53.8124 35.02 53.9386 35.3176 54.1821C35.4486 54.2952 35.5532 54.4361 35.6241 54.5947C35.6951 54.7534 35.7305 54.9259 35.7279 55.0999C35.7302 55.2675 35.6944 55.4334 35.6233 55.5848C35.5522 55.7362 35.4476 55.8692 35.3176 55.9733Z" fill="#A5A5A5"/>
<path d="M38.9956 50.2443H37.9111V57.3353H38.9956V50.2443Z" fill="#A5A5A5"/>
<path d="M46.5428 51.4582C46.8719 51.2362 47.2609 51.1225 47.6565 51.1325C48.0328 51.1101 48.4051 51.2203 48.7098 51.4444C49.0145 51.6686 49.2327 51.9926 49.3271 52.3612H50.4116C50.3602 51.9409 50.1983 51.5421 49.9426 51.2065C49.6841 50.8675 49.3469 50.598 48.9608 50.4219C48.541 50.2337 48.0864 50.1378 47.6272 50.1406C47.0407 50.1276 46.4639 50.2926 45.9712 50.6143C45.4901 50.9387 45.1051 51.389 44.8575 51.9171C44.5963 52.5166 44.4614 53.1644 44.4614 53.8194C44.4614 54.4744 44.5963 55.1222 44.8575 55.7217C45.0952 56.2651 45.4893 56.7237 45.9885 57.0379C46.4876 57.3521 47.0688 57.5073 47.6565 57.4834C48.1278 57.4968 48.5953 57.3952 49.0194 57.1873C49.3921 57.0092 49.7146 56.7394 49.9573 56.4027C50.2035 56.0687 50.36 55.676 50.4116 55.2628H49.3271C49.2731 55.5103 49.157 55.7397 48.9901 55.9289C48.8374 56.1173 48.6411 56.2648 48.4185 56.3582C48.1139 56.4825 47.7839 56.5299 47.4571 56.4964C47.1303 56.4628 46.8164 56.3494 46.5428 56.1658C46.208 55.9334 45.9522 55.6026 45.81 55.2183C45.6185 54.7495 45.5286 54.2448 45.5462 53.7379C45.5357 53.2605 45.6256 52.7862 45.81 52.3464C45.9729 51.9905 46.2256 51.6842 46.5428 51.4582Z" fill="#A5A5A5"/>
<path d="M56.9623 50.5996C56.5957 50.3693 56.1852 50.2195 55.7575 50.1599C55.3299 50.1003 54.8946 50.1323 54.48 50.2537C54.0653 50.3752 53.6806 50.5835 53.3509 50.8649C53.0211 51.1464 52.7537 51.4948 52.5659 51.8875C52.305 52.4975 52.1704 53.155 52.1704 53.8194C52.1704 54.4839 52.305 55.1414 52.5659 55.7513C52.8188 56.2802 53.2142 56.7264 53.7067 57.0386C54.1992 57.3508 54.7688 57.5165 55.3503 57.5165C55.9317 57.5165 56.5014 57.3508 56.9939 57.0386C57.4864 56.7264 57.8818 56.2802 58.1347 55.7513C58.3956 55.1414 58.5302 54.4839 58.5302 53.8194C58.5302 53.155 58.3956 52.4975 58.1347 51.8875C57.8706 51.356 57.4645 50.9098 56.9623 50.5996ZM57.1675 55.1444C57.034 55.5334 56.7954 55.877 56.4787 56.1362C56.1286 56.3768 55.7151 56.5054 55.2917 56.5054C54.8683 56.5054 54.4547 56.3768 54.1047 56.1362C53.7879 55.877 53.5493 55.5334 53.4159 55.1444C53.2659 54.7218 53.1915 54.2757 53.1961 53.8268C53.1928 53.3733 53.2672 52.9225 53.4159 52.4945C53.5527 52.1071 53.7907 51.7644 54.1047 51.5026C54.4547 51.262 54.8683 51.1334 55.2917 51.1334C55.7151 51.1334 56.1286 51.262 56.4787 51.5026C56.7926 51.7644 57.0306 52.1071 57.1675 52.4945C57.328 52.9197 57.4076 53.3718 57.4019 53.8268C57.4089 54.2772 57.3293 54.7247 57.1675 55.1444Z" fill="#A5A5A5"/>
<path d="M65.3008 53.9452C65.0696 53.7976 64.8097 53.7017 64.5388 53.6639C64.9012 53.5947 65.2396 53.4315 65.5207 53.1901C65.6501 53.0584 65.7508 52.9008 65.8164 52.7275C65.882 52.5541 65.9111 52.3688 65.9017 52.1835C65.9064 51.9184 65.8476 51.656 65.7302 51.4189C65.6128 51.1817 65.4404 50.9768 65.2276 50.8216C64.7035 50.4448 64.067 50.2618 63.4251 50.3034H60.4941V57.3944H63.8061C64.2303 57.4102 64.6522 57.3239 65.0371 57.1428C65.3573 56.9991 65.6278 56.7619 65.8137 56.4618C66.0018 56.1774 66.0989 55.8415 66.0922 55.4995C66.1073 55.1674 66.0258 54.838 65.8577 54.5521C65.7229 54.3077 65.5319 54.0995 65.3008 53.9452ZM61.5786 51.2953H63.4251C63.7839 51.2774 64.1401 51.3648 64.4509 51.5469C64.5664 51.6245 64.6606 51.7303 64.7247 51.8546C64.7887 51.9788 64.8206 52.1174 64.8172 52.2575C64.8179 52.4521 64.7618 52.6426 64.656 52.8053C64.5296 52.9623 64.362 53.0802 64.1724 53.1457C63.9348 53.2407 63.6805 53.286 63.4251 53.279H61.5786V51.2953ZM64.744 56.1361C64.4902 56.325 64.1795 56.4192 63.8647 56.4026H61.5786V54.2116H63.8647C64.1886 54.2005 64.504 54.3173 64.744 54.5373C64.8496 54.6523 64.9314 54.7875 64.9842 54.935C65.0371 55.0826 65.06 55.2393 65.0517 55.396C65.0498 55.5248 65.0214 55.6518 64.9684 55.769C64.9155 55.8862 64.839 55.991 64.744 56.0769V56.1361Z" fill="#A5A5A5"/>
<path d="M73.0088 50.5995C72.5418 50.295 71.9966 50.1354 71.4408 50.1406C71.0654 50.1265 70.6925 50.208 70.3564 50.3775C70.1184 50.506 69.9089 50.6823 69.7409 50.8956L69.4038 51.3693H69.2866V50.2442H68.2314V60H69.3159V56.2398H69.4038L69.7409 56.7283C69.9138 56.9465 70.128 57.1277 70.371 57.2612C70.7092 57.4233 71.0815 57.4995 71.4554 57.4833C72.0053 57.4935 72.5458 57.339 73.0088 57.0392C73.4736 56.7252 73.8397 56.2834 74.064 55.7661C74.3266 55.1494 74.4565 54.4833 74.445 53.812C74.4594 53.1452 74.3294 52.4833 74.064 51.8727C73.8397 51.3553 73.4736 50.9135 73.0088 50.5995ZM73.1261 55.1591C72.9968 55.5463 72.7572 55.8862 72.4373 56.1362C72.118 56.3936 71.717 56.5252 71.3089 56.5063C70.916 56.5138 70.531 56.3945 70.2098 56.1658C69.8995 55.916 69.6657 55.5823 69.5357 55.2035C69.36 54.731 69.2802 54.2275 69.3012 53.7231C69.2903 53.2484 69.3699 52.7759 69.5357 52.3316C69.6606 51.9583 69.8959 51.6328 70.2098 51.3989C70.5304 51.1705 70.917 51.056 71.3089 51.0732C71.7185 51.0592 72.121 51.1842 72.452 51.4285C72.7667 51.6712 73.0057 52 73.1407 52.376C73.292 52.8085 73.3664 53.2645 73.3605 53.7231C73.3792 54.2129 73.2995 54.7014 73.1261 55.1591Z" fill="#A5A5A5"/>
<path d="M81.4206 50.9844C81.139 50.7184 80.8042 50.5165 80.4388 50.3923C80.0899 50.2698 79.7237 50.2048 79.3543 50.1998C78.7679 50.1868 78.191 50.3518 77.6984 50.6735C77.2172 50.9979 76.8323 51.4482 76.5846 51.9763C76.3121 52.5799 76.1769 53.2375 76.189 53.9008C76.1751 54.5595 76.3104 55.2127 76.5846 55.8105C76.8327 56.3397 77.2304 56.7827 77.7277 57.0836C78.2533 57.4025 78.8587 57.5618 79.4716 57.5425C79.9113 57.5486 80.3483 57.4733 80.7612 57.3205C81.1209 57.1881 81.4464 56.9755 81.7137 56.6987C81.9671 56.4289 82.1574 56.1052 82.2706 55.7513L81.2301 55.4552C81.1524 55.6929 81.0163 55.9068 80.8345 56.0769C80.6657 56.2389 80.4663 56.3648 80.2483 56.447C79.9968 56.5259 79.7349 56.5658 79.4716 56.5655C79.0711 56.5731 78.676 56.4708 78.3285 56.2694C77.9921 56.0727 77.7216 55.7788 77.5518 55.4256C77.3799 55.0443 77.29 54.6306 77.2881 54.2116H82.3732V53.7527C82.3925 53.1844 82.308 52.6173 82.1241 52.0799C81.9706 51.6677 81.7307 51.294 81.4206 50.9844ZM77.3174 53.2198C77.3343 52.8964 77.414 52.5795 77.5518 52.2872C77.721 51.952 77.9672 51.6626 78.2699 51.4433C78.6033 51.2325 78.9904 51.1245 79.3837 51.1325C79.7434 51.1239 80.0984 51.2161 80.4095 51.3989C80.6974 51.5737 80.9271 51.8315 81.0689 52.1391C81.2304 52.4756 81.3108 52.8459 81.3034 53.2198H77.3174Z" fill="#A5A5A5"/>
<path d="M91.078 50.2443H90.7702L88.3229 55.8549L85.9049 50.2443H85.5532H84.8937H84.4688V57.3353H85.5532V51.8135L87.8833 57.3353H88.7625L91.078 51.9023V57.3353H92.1624V50.2443H91.796H91.078Z" fill="#A5A5A5"/>
<path d="M99.4753 50.9844C99.1991 50.7187 98.8691 50.5167 98.5081 50.3923C98.1592 50.2698 97.793 50.2048 97.4237 50.1998C96.8372 50.1868 96.2603 50.3518 95.7677 50.6735C95.283 50.9939 94.8971 51.4452 94.654 51.9763C94.3815 52.5799 94.2462 53.2375 94.2583 53.9008C94.2444 54.5595 94.3797 55.2127 94.654 55.8105C94.8981 56.3377 95.2905 56.7805 95.7824 57.0836C96.3132 57.4029 96.9234 57.5621 97.5409 57.5425C97.9758 57.5484 98.408 57.4732 98.8159 57.3205C99.1781 57.1844 99.5077 56.9725 99.7831 56.6987C100.032 56.4252 100.221 56.1026 100.34 55.7513L99.2995 55.4256C99.2203 55.6591 99.0901 55.8716 98.9185 56.0474C98.7444 56.2097 98.5402 56.3355 98.3176 56.4174C98.0711 56.4962 97.8141 56.5361 97.5556 56.5359C97.1506 56.5418 96.7512 56.4397 96.3979 56.2398C96.0658 56.0421 95.8002 55.7482 95.6358 55.396C95.4565 55.0173 95.3662 54.6018 95.372 54.1821H100.457V53.7231C100.472 53.1538 100.383 52.5866 100.193 52.0503C100.037 51.6446 99.7916 51.2801 99.4753 50.9844ZM95.3574 53.279C95.3692 52.9286 95.4614 52.5858 95.6267 52.2775C95.792 51.9693 96.0259 51.704 96.3099 51.5026C96.6423 51.2893 97.0301 51.1811 97.4237 51.1917C97.779 51.1811 98.1299 51.2736 98.4349 51.4582C98.7239 51.6361 98.9575 51.8926 99.109 52.1983C99.2705 52.5348 99.3508 52.9051 99.3434 53.279H95.3574Z" fill="#A5A5A5"/>
<path d="M106.978 53.2939H103.623V50.2443H102.538V57.3353H103.623V54.3005H106.978V57.3353H108.063V50.2443H106.978V53.2939Z" fill="#A5A5A5"/>
<path d="M114.936 53.2939H111.58V50.2443H110.496V57.3353H111.58V54.3005H114.936V57.3353H116.02V50.2443H114.936V53.2939Z" fill="#A5A5A5"/>
<path d="M126.132 50.2443H125.047V57.3353H126.132V50.2443Z" fill="#A5A5A5"/>
<path d="M121.399 52.8053H119.523V50.2443H118.453V57.3353H121.384C121.862 57.3516 122.336 57.2446 122.762 57.0244C123.124 56.8468 123.425 56.5631 123.626 56.2102C123.827 55.8546 123.929 55.4502 123.919 55.0407C123.925 54.7439 123.871 54.4489 123.761 54.174C123.65 53.899 123.484 53.6499 123.274 53.4419C122.753 52.9946 122.082 52.7667 121.399 52.8053ZM122.439 55.9733C122.151 56.2235 121.778 56.3509 121.399 56.3286H119.523V53.8268H121.399C121.778 53.8045 122.151 53.9319 122.439 54.1821C122.574 54.2924 122.683 54.4324 122.757 54.5914C122.83 54.7504 122.867 54.9244 122.864 55.0999C122.867 55.2691 122.83 55.4366 122.756 55.5885C122.682 55.7404 122.574 55.8723 122.439 55.9733Z" fill="#A5A5A5"/>
<path d="M132.609 50.2443L130.924 53.1458L129.239 50.2443H128.008L130.235 53.7824L128.008 57.3353H129.239L130.924 54.5818L132.609 57.3353H133.855L131.584 53.7824L133.855 50.2443H132.609Z" fill="#A5A5A5"/>
<path d="M139.277 57.3353H140.347V51.2509H143.717V57.3353H144.802V50.2443H139.277V57.3353Z" fill="#A5A5A5"/>
<path d="M152.056 50.5995C151.589 50.295 151.044 50.1354 150.488 50.1406C150.112 50.1265 149.739 50.208 149.403 50.3775C149.162 50.5018 148.952 50.6788 148.788 50.8956L148.451 51.3693H148.319V50.2442H147.278V60H148.363V56.2398H148.451C148.539 56.373 148.641 56.5359 148.788 56.7283C148.961 56.9465 149.175 57.1277 149.418 57.2612C149.756 57.4233 150.128 57.4995 150.502 57.4833C151.052 57.4935 151.593 57.339 152.056 57.0392C152.511 56.7145 152.874 56.2758 153.111 55.7661C153.373 55.1494 153.503 54.4833 153.492 53.812C153.506 53.1452 153.376 52.4833 153.111 51.8727C152.879 51.3603 152.514 50.9205 152.056 50.5995ZM152.173 55.1591C152.044 55.5463 151.804 55.8862 151.484 56.1362C151.165 56.3936 150.764 56.5252 150.356 56.5063C149.963 56.5138 149.578 56.3945 149.257 56.1658C148.946 55.916 148.713 55.5823 148.583 55.2035C148.407 54.731 148.327 54.2275 148.348 53.7231C148.34 53.2499 148.415 52.7789 148.568 52.3316C148.703 51.9598 148.942 51.6358 149.257 51.3989C149.577 51.1705 149.964 51.056 150.356 51.0732C150.765 51.0592 151.168 51.1842 151.499 51.4285C151.813 51.6683 152.048 51.9986 152.173 52.376C152.336 52.8057 152.416 53.2631 152.407 53.7231C152.389 54.2211 152.269 54.71 152.056 55.1591H152.173Z" fill="#A5A5A5"/>
<path d="M160.028 50.5996C159.524 50.2987 158.95 50.14 158.365 50.14C157.78 50.14 157.205 50.2987 156.701 50.5996C156.217 50.914 155.831 51.3606 155.588 51.8875C155.317 52.4949 155.177 53.1534 155.177 53.8194C155.177 54.4855 155.317 55.1439 155.588 55.7513C155.828 56.2765 156.215 56.7191 156.701 57.0244C157.205 57.3253 157.78 57.484 158.365 57.484C158.95 57.484 159.524 57.3253 160.028 57.0244C160.514 56.7191 160.902 56.2765 161.142 55.7513C161.412 55.1439 161.552 54.4855 161.552 53.8194C161.552 53.1534 161.412 52.4949 161.142 51.8875C160.898 51.3606 160.512 50.914 160.028 50.5996ZM160.248 55.1444C160.114 55.5334 159.876 55.877 159.559 56.1362C159.207 56.3781 158.791 56.5074 158.365 56.5074C157.939 56.5074 157.523 56.3781 157.17 56.1362C156.854 55.877 156.615 55.5334 156.482 55.1444C156.332 54.7218 156.257 54.2757 156.262 53.8268C156.259 53.3732 156.333 52.9225 156.482 52.4945C156.618 52.1071 156.856 51.7644 157.17 51.5026C157.523 51.2608 157.939 51.1314 158.365 51.1314C158.791 51.1314 159.207 51.2608 159.559 51.5026C159.873 51.7644 160.111 52.1071 160.248 52.4945C160.397 52.9225 160.471 53.3732 160.468 53.8268C160.472 54.2757 160.398 54.7218 160.248 55.1444Z" fill="#A5A5A5"/>
<path d="M169.876 51.1621C169.599 50.8373 169.253 50.5793 168.865 50.4071C168.454 50.225 168.009 50.1342 167.56 50.1406V47.8756H166.491V50.1406C166.042 50.1342 165.597 50.225 165.186 50.4071C164.799 50.5819 164.454 50.8395 164.175 51.1621C163.89 51.5021 163.671 51.894 163.53 52.3168C163.377 52.7951 163.298 53.2944 163.296 53.7971C163.296 54.3001 163.375 54.7998 163.53 55.2775C163.671 55.7003 163.89 56.0922 164.175 56.4322C164.452 56.7539 164.798 57.0071 165.186 57.1724C165.597 57.3545 166.042 57.4453 166.491 57.4389V59.7187H167.56V57.4389C168.009 57.4453 168.454 57.3545 168.865 57.1724C169.255 57.011 169.602 56.7572 169.876 56.4322C170.167 56.0961 170.386 55.703 170.521 55.2775C170.676 54.7998 170.755 54.3001 170.755 53.7971C170.753 53.2944 170.674 52.7951 170.521 52.3168C170.386 51.8913 170.167 51.4982 169.876 51.1621ZM166.491 56.5063C166.064 56.5276 165.644 56.3966 165.304 56.1362C164.982 55.8784 164.738 55.5348 164.6 55.1443C164.45 54.7217 164.376 54.2757 164.38 53.8268C164.379 53.4819 164.423 53.1383 164.512 52.8053C164.581 52.4964 164.711 52.2045 164.893 51.9467C165.065 51.6966 165.29 51.4891 165.553 51.3397C165.845 51.1972 166.166 51.1262 166.491 51.1325V56.5063ZM169.539 54.8334C169.469 55.1469 169.34 55.4437 169.158 55.7069C168.99 55.9476 168.77 56.1453 168.513 56.2842C168.219 56.4387 167.891 56.5152 167.56 56.5063V51.1325C167.991 51.1139 168.415 51.2444 168.762 51.5026C169.071 51.7686 169.308 52.11 169.451 52.4944C169.6 52.9224 169.674 53.3732 169.671 53.8268C169.673 54.1669 169.629 54.5057 169.539 54.8334Z" fill="#A5A5A5"/>
<path d="M177.731 50.9844C177.449 50.7184 177.114 50.5165 176.749 50.3923C176.4 50.2698 176.034 50.2048 175.664 50.1998C175.078 50.1868 174.501 50.3518 174.008 50.6735C173.527 50.9979 173.142 51.4482 172.895 51.9763C172.622 52.5799 172.487 53.2375 172.499 53.9008C172.485 54.5595 172.62 55.2127 172.895 55.8105C173.139 56.3377 173.531 56.7805 174.023 57.0836C174.555 57.4014 175.164 57.5605 175.782 57.5425C176.221 57.5472 176.658 57.472 177.071 57.3205C177.429 57.1846 177.754 56.9725 178.024 56.6987C178.277 56.4289 178.467 56.1052 178.581 55.7513L177.54 55.4552C177.459 55.686 177.328 55.8953 177.155 56.0672C176.982 56.239 176.773 56.3689 176.544 56.447C176.297 56.5269 176.04 56.5669 175.782 56.5655C175.377 56.5714 174.977 56.4693 174.624 56.2694C174.292 56.0718 174.026 55.7777 173.862 55.4256C173.69 55.0443 173.6 54.6306 173.598 54.2116H178.683V53.7527C178.695 53.1848 178.611 52.619 178.434 52.0799C178.281 51.6677 178.041 51.294 177.731 50.9844ZM173.598 53.279C173.615 52.9556 173.695 52.6388 173.833 52.3464C174.002 52.0112 174.248 51.7218 174.551 51.5026C174.884 51.2917 175.271 51.1837 175.664 51.1917C176.024 51.1832 176.379 51.2754 176.69 51.4582C176.975 51.637 177.204 51.8936 177.35 52.1983C177.511 52.5348 177.592 52.9051 177.584 53.279H173.598Z" fill="#A5A5A5"/>
<path d="M182.523 51.4582C182.846 51.2356 183.231 51.1216 183.622 51.1325C184.035 51.1071 184.443 51.2392 184.765 51.5026C185.026 51.728 185.215 52.0269 185.307 52.3612H186.392C186.34 51.9409 186.178 51.5421 185.923 51.2065C185.661 50.8708 185.325 50.602 184.941 50.4219C184.521 50.2337 184.066 50.1378 183.607 50.1406C183.021 50.1276 182.444 50.2926 181.951 50.6143C181.467 50.9346 181.081 51.386 180.838 51.9171C180.563 52.5149 180.428 53.1681 180.442 53.8268C180.433 54.4787 180.563 55.1248 180.823 55.7217C181.066 56.2446 181.446 56.6901 181.922 57.0096C182.427 57.3401 183.021 57.5055 183.622 57.4834C184.094 57.5011 184.562 57.3993 184.985 57.1873C185.362 57.0097 185.689 56.74 185.937 56.4027C186.178 56.0653 186.333 55.6742 186.392 55.2628H185.307C185.253 55.5103 185.137 55.7397 184.97 55.9289C184.811 56.1167 184.61 56.2638 184.384 56.3582C184.143 56.4624 183.884 56.513 183.622 56.5063C183.225 56.5119 182.836 56.393 182.508 56.1658C182.181 55.9252 181.927 55.597 181.775 55.2183C181.597 54.7463 181.512 54.2432 181.526 53.7379C181.516 53.2605 181.606 52.7862 181.79 52.3464C181.949 51.9878 182.202 51.6804 182.523 51.4582Z" fill="#A5A5A5"/>
<path d="M190.158 51.4582C190.481 51.2356 190.866 51.1216 191.257 51.1325C191.635 51.1065 192.011 51.2151 192.319 51.4395C192.627 51.6639 192.847 51.9899 192.942 52.3612H194.026C193.975 51.9409 193.813 51.5421 193.557 51.2065C193.296 50.8708 192.959 50.602 192.576 50.4219C192.156 50.2337 191.701 50.1378 191.242 50.1406C190.656 50.1276 190.079 50.2926 189.586 50.6143C189.101 50.9346 188.715 51.386 188.472 51.9171C188.198 52.5149 188.063 53.1681 188.077 53.8268C188.068 54.4787 188.198 55.1248 188.458 55.7217C188.7 56.2446 189.081 56.6901 189.557 57.0096C190.018 57.2867 190.538 57.4474 191.074 57.4783C191.61 57.5093 192.145 57.4094 192.634 57.1873C193.006 57.0088 193.329 56.7393 193.572 56.4032C193.815 56.0672 193.971 55.6752 194.026 55.2628H192.942C192.888 55.5103 192.772 55.7397 192.605 55.9289C192.448 56.1129 192.253 56.2595 192.033 56.3582C191.788 56.4623 191.523 56.5128 191.257 56.5063C190.86 56.5119 190.47 56.3929 190.143 56.1658C189.816 55.9252 189.562 55.597 189.41 55.2183C189.231 54.7463 189.147 54.2432 189.161 53.7379C189.151 53.2605 189.24 52.7862 189.425 52.3464C189.583 51.9878 189.837 51.6804 190.158 51.4582Z" fill="#A5A5A5"/>
<path d="M197.031 55.7365V50.2443H195.961V57.3353H197.221L200.592 51.8431V57.3353H201.662V50.2443H200.416L197.031 55.7365Z" fill="#A5A5A5"/>
<path d="M206.937 48.7787C206.812 48.7904 206.686 48.7724 206.569 48.7262C206.452 48.6799 206.347 48.6066 206.263 48.5122C206.135 48.3255 206.068 48.1028 206.073 47.8756H205.062C205.055 48.1055 205.098 48.3341 205.187 48.546C205.275 48.7579 205.407 48.9483 205.575 49.1044C205.952 49.4324 206.44 49.6018 206.937 49.578C207.201 49.6011 207.466 49.5711 207.717 49.4898C207.969 49.4085 208.202 49.2775 208.403 49.1044C208.572 48.9502 208.706 48.7601 208.795 48.5478C208.884 48.3354 208.925 48.1059 208.916 47.8756H207.919C207.921 48.107 207.843 48.3318 207.699 48.5122C207.606 48.6191 207.487 48.6998 207.353 48.7465C207.22 48.7932 207.076 48.8043 206.937 48.7787Z" fill="#A5A5A5"/>
<path d="M205.164 55.7365V50.2443H204.08V57.3353H205.355L208.725 51.8431V57.3353H209.795V50.2443H208.549L205.164 55.7365Z" fill="#A5A5A5"/>
<path d="M22.612 2.13179C20.224 1.02427 17.6187 0.477672 14.9916 0.532992H0V39.3487H7.91347V25.6699H14.8597C18.6996 25.8989 22.494 24.7332 25.5576 22.3834C26.8394 21.2807 27.8545 19.8963 28.5251 18.3362C29.1957 16.7761 29.504 15.0817 29.4264 13.3827C29.467 11.0239 28.8528 8.70075 27.6532 6.67658C26.4507 4.69471 24.6975 3.11412 22.612 2.13179ZM19.7837 17.7054C18.423 18.7815 16.7154 19.309 14.9916 19.1858H7.91347V7.01704H15.2408C16.0869 6.98567 16.9304 7.12978 17.7193 7.4404C18.5082 7.75102 19.2257 8.22158 19.8276 8.82311C20.3921 9.44427 20.829 10.1723 21.1133 10.9651C21.3975 11.7579 21.5234 12.5997 21.4836 13.442C21.5269 14.235 21.3971 15.028 21.1033 15.7648C20.8096 16.5016 20.3591 17.1641 19.7837 17.7054Z" fill="#A5A5A5"/>
<path d="M55.3356 39.3486H63.8353V38.9786L55.5261 23.1088C57.6173 22.2427 59.4108 20.7757 60.6846 18.8897C61.8752 16.892 62.4658 14.588 62.3845 12.2576C62.4722 10.6262 62.1844 8.99657 61.5436 7.49652C60.9029 5.99647 59.9266 4.66686 58.6915 3.61214C56.2296 1.56921 52.7271 0.547729 48.1842 0.547729H33.9106V39.3634H41.8241V25.1517H48.1402L55.3356 39.3486ZM41.8241 7.017H48.1842C49.0392 6.94553 49.8998 7.04754 50.7152 7.31703C51.5306 7.58652 52.2844 8.01804 52.9323 8.58621C53.4478 9.17278 53.8428 9.85699 54.0944 10.5991C54.3459 11.3411 54.4491 12.1263 54.3977 12.909C54.44 13.69 54.3153 14.4711 54.0321 15.1991C53.7489 15.9272 53.3138 16.5851 52.7564 17.1281C51.4629 18.2018 49.81 18.7319 48.1402 18.6084H41.8241V7.017Z" fill="#A5A5A5"/>
<path d="M97.145 30.8661C98.5476 27.7085 99.2336 24.2741 99.1527 20.8142V19.0822C99.2239 15.6201 98.5279 12.1857 97.1157 9.03038C95.8632 6.26115 93.8225 3.93164 91.2539 2.33906C88.6644 0.807756 85.7181 0.000610352 82.7176 0.000610352C79.7171 0.000610352 76.7707 0.807756 74.1813 2.33906C71.6875 3.9615 69.7205 6.28827 68.5246 9.03038C67.1045 12.1941 66.4034 15.6388 66.473 19.1118V21.0363C66.4164 24.4509 67.1174 27.8349 68.5246 30.9401C69.7906 33.681 71.8299 35.9831 74.3864 37.5574C76.9801 39.0841 79.9282 39.8885 82.9301 39.8885C85.9319 39.8885 88.88 39.0841 91.4737 37.5574C93.9758 35.9405 95.9489 33.6125 97.145 30.8661ZM91.1366 20.9475C91.3449 24.1625 90.6164 27.3688 89.041 30.1703C88.3775 31.1866 87.4642 32.0114 86.3905 32.5642C85.3167 33.1169 84.1193 33.3785 82.9154 33.3235C81.685 33.3739 80.463 33.0985 79.3705 32.5246C78.278 31.9507 77.353 31.0983 76.6872 30.0518C75.0975 27.2488 74.349 24.0393 74.533 20.8142V18.9342C74.3395 15.7186 75.0998 12.5178 76.7165 9.74098C77.4273 8.76478 78.3554 7.97112 79.4259 7.42413C80.4963 6.87714 81.6791 6.59214 82.8788 6.59214C84.0784 6.59214 85.2612 6.87714 86.3316 7.42413C87.4021 7.97112 88.3302 8.76478 89.041 9.74098C90.6648 12.547 91.4201 15.7797 91.2099 19.023L91.1366 20.9475Z" fill="#A5A5A5"/>
<path d="M133.503 28.1569L127.202 0.532959H120.49L114.159 28.0977L108.957 0.532959H101.073L109.587 39.3487H117.559L123.817 13.3827L130.074 39.3487H138.046L146.575 0.532959H138.676L133.503 28.1569Z" fill="#A5A5A5"/>
<path d="M176.28 32.9238H158.445V22.5315H173.642V16.2546H158.445V7.01704H176.236V0.532959H150.532V39.3487H176.28V32.9238Z" fill="#A5A5A5"/>
<path d="M206.454 36.4175C207.658 35.3805 208.606 34.0734 209.222 32.6007C209.838 31.1279 210.104 29.5301 210 27.9349C210.058 25.9475 209.454 23.9979 208.286 22.3982C207.125 20.896 205.482 19.8492 203.64 19.4375C205.316 18.8272 206.753 17.691 207.743 16.1954C208.725 14.7119 209.237 12.9613 209.209 11.1769C209.3 9.65687 209.018 8.13773 208.389 6.75376C207.761 5.36978 206.804 4.16365 205.604 3.24204C203.191 1.43597 199.654 0.532959 194.994 0.532959H181.526V39.3487H196.459C200.768 39.319 204.099 38.342 206.454 36.4175ZM189.352 7.01701H194.906C196.579 6.88535 198.251 7.28937 199.683 8.1717C200.211 8.64125 200.62 9.23183 200.875 9.89384C201.13 10.5558 201.224 11.27 201.149 11.9763C201.149 15.1147 199.151 16.7234 195.155 16.8024H189.293L189.352 7.01701ZM189.352 32.9237V22.4426H196.679C200.314 22.5019 202.131 24.3079 202.131 27.8608C202.168 28.5601 202.047 29.2588 201.775 29.903C201.503 30.5472 201.088 31.1199 200.563 31.5766C199.308 32.5508 197.745 33.0296 196.166 32.9237H189.352Z" fill="#A5A5A5"/>
</g>
<defs>
<clipPath id="clip0_34_913">
<rect width="210" height="60" fill="white"/>
</clipPath>
</defs>
</svg>
